<?xml version="1.0" encoding="utf-8"?>
<!-- Generator: Adobe Illustrator 16.0.0, SVG Export Plug-In . SVG Version: 6.00 Build 0)  -->
<!DOCTYPE svg PUBLIC "-//W3C//DTD SVG 1.1//EN" "http://www.w3.org/Graphics/SVG/1.1/DTD/svg11.dtd">
<svg version="1.1" id="Capa_1" xmlns="http://www.w3.org/2000/svg" xmlns:xlink="http://www.w3.org/1999/xlink" x="0px" y="0px"
	 width="90px" height="90px" viewBox="0 0 90 90" enable-background="new 0 0 90 90" xml:space="preserve">
<path fill="#1D1D1D" d="M46.5,14C29.5,14,21,26.1,21,36.2c0,6.1,2.3,11.6,7.3,13.6c0.8,0.3,1.5,0,1.8-0.9c0.2-0.6,0.6-2.2,0.7-2.9
	c0.2-0.9,0.1-1.2-0.5-2c-1.4-1.7-2.4-3.9-2.4-7c0-9,6.7-17.1,17.5-17.1c9.6,0,14.8,5.8,14.8,13.6c0,10.3-4.5,18.9-11.3,18.9
	c-3.7,0-6.5-3.1-5.6-6.9c1.1-4.5,3.1-9.4,3.1-12.6c0-2.9-1.6-5.3-4.8-5.3c-3.8,0-6.9,3.9-6.9,9.2c0,3.4,1.1,5.6,1.1,5.6
	s-3.9,16.5-4.6,19.4c-1.4,5.8-0.2,12.8-0.1,13.5c0.1,0.4,0.6,0.5,0.8,0.2c0.4-0.5,4.9-6.1,6.4-11.7c0.4-1.6,2.5-9.8,2.5-9.8
	c1.2,2.4,4.9,4.4,8.7,4.4C61.2,58.8,69,48.4,69,34.4C69,23.8,60.1,14,46.5,14z"/>
</svg>
