<?xml version="1.0" encoding="utf-8"?>
<!-- Generator: Adobe Illustrator 16.0.0, SVG Export Plug-In . SVG Version: 6.00 Build 0)  -->
<!DOCTYPE svg PUBLIC "-//W3C//DTD SVG 1.1//EN" "http://www.w3.org/Graphics/SVG/1.1/DTD/svg11.dtd">
<svg version="1.1" id="Capa_1" xmlns="http://www.w3.org/2000/svg" xmlns:xlink="http://www.w3.org/1999/xlink" x="0px" y="0px"
	 width="90px" height="90px" viewBox="0 0 90 90" enable-background="new 0 0 90 90" xml:space="preserve">
<path fill="#1D1D1D" d="M45,13c-17.7,0-32,14.3-32,32c0,17.7,14.3,32,32,32s32-14.3,32-32C77,27.3,62.7,13,45,13z M59.7,59.2
	c-0.6,0.9-1.8,1.2-2.7,0.7c-7.5-4.6-17-5.6-28.1-3.1c-1.1,0.2-2.1-0.4-2.4-1.5c0-0.2,0-0.4,0-0.5c0,0,0,0,0,0
	c-0.1-1,0.6-1.8,1.5-2.1c4.3-1,8.3-1.5,12.1-1.5c7.1,0,13.4,1.7,18.9,5c0.6,0.4,1,1.1,0.9,1.8c0,0,0,0,0,0
	C60,58.4,59.9,58.8,59.7,59.2z M63.6,50.4c-0.7,1.2-2.3,1.5-3.4,0.8c-8.6-5.3-21.7-6.8-31.9-3.7c-1.3,0.4-2.7-0.3-3.1-1.7
	c-0.1-0.2-0.1-0.5-0.1-0.7c-0.1-1.1,0.6-2.2,1.8-2.6c4-1.2,8.4-1.8,12.8-1.8c8.3,0,16.7,2.1,23.1,6.1c0.8,0.5,1.2,1.3,1.2,2.2
	C64,49.5,63.9,50,63.6,50.4z M63.9,41.4c-10.3-6.1-27.3-6.7-37.2-3.7c-1.6,0.5-3.3-0.4-3.7-2c-0.1-0.4-0.1-0.7-0.1-1.1
	c0-1.3,0.8-2.5,2.1-2.8c4.3-1.3,9.6-2,15.3-2c9.3,0,19.3,1.9,26.7,6.3c0.9,0.6,1.5,1.6,1.5,2.6c0-0.1,0-0.3-0.1-0.4
	c0.2,0.7,0.1,1.5-0.3,2.2C67.2,41.7,65.3,42.2,63.9,41.4z"/>
</svg>
